HIERARCHY
ROOT Hips
{
    OFFSET 0.000000 0.000000 0.000000
    CHANNELS 6 Xposition Yposition Zposition Zrotation Xrotation Yrotation
        JOINT Chest
        {
            OFFSET -0.000000 31.986500 -0.000000
            CHANNELS 3 Zrotation Xrotation Yrotation
            JOINT Neck
            {
                OFFSET -0.000000 24.131615 0.000000
                CHANNELS 3 Zrotation Xrotation Yrotation
                JOINT Head
                {
                    OFFSET -0.000000 10.450000 0.000000
                    CHANNELS 3 Zrotation Xrotation Yrotation
                    End Site
                    {
                        OFFSET -0.000000 16.150003 0.000000
                    }
                }
            }
            JOINT LeftCollar
            {
                OFFSET -0.000000 24.131615 0.000000
                CHANNELS 3 Zrotation Xrotation Yrotation
                JOINT LeftShoulder
                {
                    OFFSET 20.000000 -0.000000 0.000000
                    CHANNELS 3 Zrotation Xrotation Yrotation
                    JOINT LeftElbow
                    {
                        OFFSET 22.686384 0.000000 0.000000
                        CHANNELS 3 Zrotation Xrotation Yrotation
                        JOINT LeftWrist
                        {
                            OFFSET 24.813133 0.000000 0.000000
                            CHANNELS 3 Zrotation Xrotation Yrotation
                            End Site
                            {
                                OFFSET 0.000000 -14.250000 0.000000
                            }
                        }
                    }
                }
            }
            JOINT RightCollar
            {
                OFFSET -0.000000 24.131615 0.000000
                CHANNELS 3 Zrotation Xrotation Yrotation
                JOINT RightShoulder
                {
                    OFFSET -20.000000 0.000000 0.000000
                    CHANNELS 3 Zrotation Xrotation Yrotation
                    JOINT RightElbow
                    {
                        OFFSET -22.686384 0.000000 0.000000
                        CHANNELS 3 Zrotation Xrotation Yrotation
                        JOINT RightWrist
                        {
                            OFFSET -24.813133 0.000000 0.000000
                            CHANNELS 3 Zrotation Xrotation Yrotation
                            End Site
                            {
                                OFFSET -0.000000 -14.250000 0.000000
                            }
                        }
                    }
                }
            }
        }
    JOINT LeftHip
    {
        OFFSET 11.400001 0.000000 0.000000
        CHANNELS 3 Zrotation Xrotation Yrotation
        JOINT LeftKnee
        {
            OFFSET -0.000000 -38.315727 0.000000
            CHANNELS 3 Zrotation Xrotation Yrotation
            JOINT LeftAnkle
            {
                OFFSET -0.000000 -38.060658 0.000000
                CHANNELS 3 Zrotation Xrotation Yrotation
                End Site
                {
                    OFFSET -0.000000 -4.750000 16.150003
                }
            }
        }
    }
    JOINT RightHip
    {
        OFFSET -11.400001 0.000000 0.000000
        CHANNELS 3 Zrotation Xrotation Yrotation
        JOINT RightKnee
        {
            OFFSET -0.000000 -38.315727 0.000000
            CHANNELS 3 Zrotation Xrotation Yrotation
            JOINT RightAnkle
            {
                OFFSET -0.000000 -38.060658 0.000000
                CHANNELS 3 Zrotation Xrotation Yrotation
                End Site
                {
                    OFFSET -0.000000 -4.750000 16.150003
                }
            }
        }
    }
}
MOTION
Frames:    12
Frame Time:    0.010000
43.572628    85.772232    -28.475458    0.451260    -1.715663    -46.055145    4.507612    13.317605    -2.290356    4.084208    2.375053    -0.109061    -8.976439    -5.350911    -0.440262    -23.374784    -0.395926    2.009407    -35.343483    45.368561    -32.030807    8.281319    -5.834601    -70.543182    132.913208    8.620723    16.989271    26.704683    -1.241669    -5.041882    24.073690    59.842278    16.535370    -19.653067    -13.303880    67.771507    -118.390610    -7.323020    -14.406281    15.835883    -5.237292    -6.761187    -7.709657    30.045618    3.037654    -8.080433    0.880431    28.560646    2.424342    -3.732258    4.394540    -4.407394    18.691578    -5.897797    0.558218    -16.271269    -15.318672    
43.745239    85.680672    -28.425180    0.432265    -1.631968    -46.260189    4.372582    13.453920    -2.373169    3.897296    1.952347    0.380106    -8.709599    -5.818432    -0.013974    -23.166412    -0.488191    2.767649    -34.751709    45.628685    -32.928082    8.861250    -6.578507    -70.659668    132.877029    8.560080    17.744244    26.716616    -1.147462    -4.447940    23.636980    60.153309    16.794348    -19.373167    -13.067157    68.343826    -120.010925    -7.309346    -14.354227    15.739767    -5.025488    -6.814672    -7.223938    29.788609    2.739307    -9.357244    1.180492    28.542143    2.286276    -4.394266    7.106987    -3.229353    19.683645    -10.104362    1.011418    -16.282587    -13.768185    
43.971924    85.514343    -28.341585    0.575960    -1.621528    -46.272980    4.287863    13.526140    -2.591501    3.947337    1.422367    0.526358    -8.650073    -6.051286    0.115920    -23.175791    -0.532917    2.631745    -34.845608    45.480522    -32.745220    9.150455    -6.769005    -71.247040    133.192062    8.454065    17.246944    26.592228    -1.089216    -4.419956    23.176847    60.153515    17.231974    -19.358149    -13.239172    68.682426    -120.160286    -7.234922    -14.089422    15.295979    -4.960065    -7.747080    -7.120283    29.663115    1.587791    -10.563885    -0.525455    30.501602    1.856093    -5.935613    4.304047    -3.694129    22.074049    -6.906571    1.184431    -17.070959    -13.998016    
44.126778    85.408997    -28.284163    0.602814    -1.609207    -46.366520    4.225777    13.640128    -2.698349    3.984516    1.095345    0.685284    -8.608421    -6.330878    0.250842    -23.110298    -0.557878    2.694052    -34.754475    45.475700    -32.851387    9.452641    -7.018988    -71.563675    133.369278    8.399442    17.265217    26.536657    -1.036378    -4.309218    22.824539    60.208420    17.542856    -19.301664    -13.286963    68.983955    -120.537643    -7.316317    -13.919766    15.085430    -4.808700    -8.125439    -6.938549    29.489712    1.222551    -11.154495    -1.177535    31.124128    1.616751    -6.744933    3.974396    -3.518862    23.351854    -6.915565    1.332475    -17.408943    -13.553838    
44.299667    85.277603    -28.211084    0.595645    -1.613792    -46.495152    4.176583    13.815298    -2.805825    4.069587    0.743438    0.836220    -8.606701    -6.662638    0.360969    -23.039978    -0.554578    2.678839    -34.683979    45.436787    -32.911674    9.756052    -7.284847    -71.954933    133.579300    8.291104    17.220301    26.467245    -0.996825    -4.249017    22.410528    60.263165    17.917835    -19.280409    -13.368779    69.308167    -120.841255    -7.463434    -13.714758    14.862782    -4.575026    -8.508475    -6.739754    29.279308    0.875153    -11.754716    -1.976362    31.762897    1.346152    -7.616044    3.521212    -3.361048    24.789217    -6.802162    1.470885    -17.798058    -13.066437    
44.484222    85.116264    -28.120226    0.537846    -1.639452    -46.663517    4.147471    14.068409    -2.906736    4.162580    0.378479    1.001925    -8.620164    -7.041461    0.484952    -22.976606    -0.523626    2.643523    -34.616299    45.344738    -32.951801    10.064716    -7.574768    -72.418114    133.822083    8.134491    17.121489    26.379192    -0.950659    -4.188728    21.954962    60.320278    18.323792    -19.261513    -13.457946    69.673889    -121.089928    -7.665776    -13.467153    14.644599    -4.241237    -8.854031    -6.528682    29.038019    0.559605    -12.347514    -2.929496    32.385841    1.055551    -8.503186    2.955381    -3.234788    26.339407    -6.547990    1.594469    -18.230368    -12.559161    
44.674133    84.922256    -28.010559    0.418048    -1.685428    -46.870922    4.148505    14.402778    -2.997743    4.257996    0.019316    1.183221    -8.649107    -7.465720    0.621077    -22.924660    -0.549257    2.592018    -34.558643    45.283588    -32.954189    10.462039    -7.988615    -72.930420    134.004913    7.915606    16.991951    26.272972    -0.942939    -4.126289    21.452326    60.421825    18.770338    -19.346327    -13.601460    70.024651    -121.178734    -7.947580    -13.204326    14.448213    -3.800391    -9.117476    -6.309246    28.774372    0.278483    -12.910673    -4.033941    32.961906    0.758460    -9.362378    2.299772    -3.150421    27.947969    -6.151450    1.705083    -18.696968    -12.055344    
44.863811    84.694908    -27.882582    0.232005    -1.745263    -47.111099    4.186292    14.810496    -3.079700    4.357073    -0.311670    1.372612    -8.696338    -7.935201    0.757524    -22.896238    -0.528188    2.513153    -34.499561    45.144241    -32.908367    10.769478    -8.260035    -73.516823    134.380035    7.752512    16.896076    26.158154    -0.969062    -4.072847    20.951214    60.545341    19.197571    -19.410282    -13.774225    70.410896    -121.297623    -8.214744    -12.939183    14.290433    -3.257975    -9.255379    -6.082840    28.496613    0.019233    -13.419930    -5.271946    33.464001    0.470596    -10.157041    1.584434    -3.114975    29.557550    -5.626807    1.811195    -19.187992    -11.573547    
45.049118    84.436348    -27.738583    -0.016565    -1.806768    -47.371696    4.266331    15.272997    -3.159209    4.448903    -0.592267    1.564367    -8.748817    -8.452337    0.894849    -22.897793    -0.493959    2.410495    -34.399811    44.970894    -32.868481    11.067717    -8.563651    -74.143288    134.754227    7.547461    16.809361    26.051950    -0.941712    -4.026390    20.477964    60.593903    19.568800    -19.404182    -13.876746    70.881516    -121.402824    -8.492873    -12.645825    14.186396    -2.633450    -9.233474    -5.849195    28.211464    -0.238845    -13.855097    -6.610510    33.869385    0.208941    -10.862708    0.839776    -3.132667    31.112698    -5.001316    1.922796    -19.691319    -11.125089    
45.227951    84.151970    -27.582586    -0.315935    -1.853595    -47.635334    4.391150    15.761806    -3.247440    4.525866    -0.800975    1.750093    -8.792976    -9.020427    1.025682    -22.934950    -0.475682    2.281219    -34.263142    44.786957    -32.820114    11.350054    -8.870807    -74.788811    135.145020    7.324973    16.769621    25.964483    -0.915751    -3.993026    19.988091    60.612125    19.949242    -19.478298    -14.025795    71.325981    -121.401100    -8.800618    -12.390216    14.148304    -1.959643    -9.029980    -5.607293    27.924784    -0.519167    -14.205585    -8.003608    34.160053    -0.010629    -11.469522    0.094836    -3.203025    32.564068    -4.317853    2.046867    -20.190859    -10.710616    
45.400589    83.850899    -27.419590    -0.647216    -1.868892    -47.881329    4.559702    16.242811    -3.358664    4.576739    -0.923287    1.926587    -8.810276    -9.636834    1.146185    -23.015396    -0.444494    2.133676    -34.074093    44.560722    -32.776848    11.553972    -9.084049    -75.439125    135.620972    7.108659    16.793127    25.906242    -0.931527    -3.972650    19.542189    60.626785    20.273899    -19.582525    -14.203617    71.749344    -121.479965    -9.047060    -12.230765    14.182924    -1.280013    -8.636899    -5.356215    27.643877    -0.847518    -14.470501    -9.397762    34.326157    -0.177280    -11.981414    -0.620682    -3.316863    33.872196    -3.636782    2.185755    -20.666931    -10.321431    
45.569241    83.545914    -27.254368    -0.986979    -1.840725    -48.088810    4.764350    16.681383    -3.506037    4.594781    -0.951938    2.085238    -8.784956    -10.292185    1.256294    -23.142256    -0.409455    1.976112    -33.811348    44.310875    -32.771317    11.690557    -9.238037    -76.058937    136.128967    6.850965    16.856443    25.893749    -0.910830    -3.967540    19.211180    60.548981    20.463440    -19.548546    -14.294273    72.231110    -121.784233    -9.216908    -12.111994    14.289261    -0.641336    -8.059031    -5.096052    27.378641    -1.254062    -14.656281    -10.738308    34.369450    -0.288712    -12.410338    -1.273617    -3.453792    35.008862    -3.028857    2.337946    -21.098400    -9.947969    
